<svg xmlns="http://www.w3.org/2000/svg" version="1.1" xmlns:xlink="http://www.w3.org/1999/xlink" xmlns:svgjs="http://svgjs.dev/svgjs" width="1440" height="560" preserveAspectRatio="none" viewBox="0 0 1440 560"><g mask="url(&quot;#SvgjsMask1127&quot;)" fill="none"><rect width="1440" height="560" x="0" y="0" fill="#0e2a47"></rect><path d="M95.78 -36.34L133.89 -14.34L133.89 29.66L95.78 51.66L57.68 29.66L57.68 -14.34zM171.99 491.66L210.1 513.66L210.1 557.66L171.99 579.66L133.89 557.66L133.89 513.66zM248.21 -36.34L286.31 -14.34L286.31 29.66L248.21 51.66L210.1 29.66L210.1 -14.34zM248.21 95.66L286.31 117.66L286.31 161.66L248.21 183.66L210.1 161.66L210.1 117.66zM248.21 359.66L286.31 381.66L286.31 425.66L248.21 447.66L210.1 425.66L210.1 381.66zM514.95 425.66L553.06 447.66L553.06 491.66L514.95 513.66L476.84 491.66L476.84 447.66zM591.16 293.66L629.27 315.66L629.27 359.66L591.16 381.66L553.06 359.66L553.06 315.66zM629.27 -36.34L667.38 -14.34L667.38 29.66L629.27 51.66L591.16 29.66L591.16 -14.34zM667.38 425.66L705.48 447.66L705.48 491.66L667.38 513.66L629.27 491.66L629.27 447.66zM629.27 491.66L667.38 513.66L667.38 557.66L629.27 579.66L591.16 557.66L591.16 513.66zM781.69 359.66L819.8 381.66L819.8 425.66L781.69 447.66L743.59 425.66L743.59 381.66zM896.01 293.66L934.12 315.66L934.12 359.66L896.01 381.66L857.91 359.66L857.91 315.66zM934.12 227.66L972.23 249.66L972.23 293.66L934.12 315.66L896.01 293.66L896.01 249.66zM934.12 359.66L972.23 381.66L972.23 425.66L934.12 447.66L896.01 425.66L896.01 381.66zM1048.44 29.66L1086.54 51.66L1086.54 95.66L1048.44 117.66L1010.33 95.66L1010.33 51.66zM1048.44 293.66L1086.54 315.66L1086.54 359.66L1048.44 381.66L1010.33 359.66L1010.33 315.66zM1010.33 491.66L1048.44 513.66L1048.44 557.66L1010.33 579.66L972.23 557.66L972.23 513.66zM1124.65 425.66L1162.76 447.66L1162.76 491.66L1124.65 513.66L1086.54 491.66L1086.54 447.66zM1086.54 491.66L1124.65 513.66L1124.65 557.66L1086.54 579.66L1048.44 557.66L1048.44 513.66zM1200.86 293.66L1238.97 315.66L1238.97 359.66L1200.86 381.66L1162.76 359.66L1162.76 315.66zM1162.76 359.66L1200.86 381.66L1200.86 425.66L1162.76 447.66L1124.65 425.66L1124.65 381.66zM1238.97 227.66L1277.07 249.66L1277.07 293.66L1238.97 315.66L1200.86 293.66L1200.86 249.66zM1315.18 491.66L1353.29 513.66L1353.29 557.66L1315.18 579.66L1277.07 557.66L1277.07 513.66z" stroke="rgba(2, 226, 148, 1)" stroke-width="2"></path><path d="M91.38 -36.34 a4.4 4.4 0 1 0 8.8 0 a4.4 4.4 0 1 0 -8.8 0zM129.49 -14.34 a4.4 4.4 0 1 0 8.8 0 a4.4 4.4 0 1 0 -8.8 0zM129.49 29.66 a4.4 4.4 0 1 0 8.8 0 a4.4 4.4 0 1 0 -8.8 0zM91.38 51.66 a4.4 4.4 0 1 0 8.8 0 a4.4 4.4 0 1 0 -8.8 0zM53.28 29.66 a4.4 4.4 0 1 0 8.8 0 a4.4 4.4 0 1 0 -8.8 0zM53.28 -14.34 a4.4 4.4 0 1 0 8.8 0 a4.4 4.4 0 1 0 -8.8 0zM167.59 491.66 a4.4 4.4 0 1 0 8.8 0 a4.4 4.4 0 1 0 -8.8 0zM205.7 513.66 a4.4 4.4 0 1 0 8.8 0 a4.4 4.4 0 1 0 -8.8 0zM205.7 557.66 a4.4 4.4 0 1 0 8.8 0 a4.4 4.4 0 1 0 -8.8 0zM167.59 579.66 a4.4 4.4 0 1 0 8.8 0 a4.4 4.4 0 1 0 -8.8 0zM129.49 557.66 a4.4 4.4 0 1 0 8.8 0 a4.4 4.4 0 1 0 -8.8 0zM129.49 513.66 a4.4 4.4 0 1 0 8.8 0 a4.4 4.4 0 1 0 -8.8 0zM243.81 -36.34 a4.4 4.4 0 1 0 8.8 0 a4.4 4.4 0 1 0 -8.8 0zM281.91 -14.34 a4.4 4.4 0 1 0 8.8 0 a4.4 4.4 0 1 0 -8.8 0zM281.91 29.66 a4.4 4.4 0 1 0 8.8 0 a4.4 4.4 0 1 0 -8.8 0zM243.81 51.66 a4.4 4.4 0 1 0 8.8 0 a4.4 4.4 0 1 0 -8.8 0zM205.7 29.66 a4.4 4.4 0 1 0 8.8 0 a4.4 4.4 0 1 0 -8.8 0zM205.7 -14.34 a4.4 4.4 0 1 0 8.8 0 a4.4 4.4 0 1 0 -8.8 0zM243.81 95.66 a4.4 4.4 0 1 0 8.8 0 a4.4 4.4 0 1 0 -8.8 0zM281.91 117.66 a4.4 4.4 0 1 0 8.8 0 a4.4 4.4 0 1 0 -8.8 0zM281.91 161.66 a4.4 4.4 0 1 0 8.8 0 a4.4 4.4 0 1 0 -8.8 0zM243.81 183.66 a4.4 4.4 0 1 0 8.8 0 a4.4 4.4 0 1 0 -8.8 0zM205.7 161.66 a4.4 4.4 0 1 0 8.8 0 a4.4 4.4 0 1 0 -8.8 0zM205.7 117.66 a4.4 4.4 0 1 0 8.8 0 a4.4 4.4 0 1 0 -8.8 0zM243.81 359.66 a4.4 4.4 0 1 0 8.8 0 a4.4 4.4 0 1 0 -8.8 0zM281.91 381.66 a4.4 4.4 0 1 0 8.8 0 a4.4 4.4 0 1 0 -8.8 0zM281.91 425.66 a4.4 4.4 0 1 0 8.8 0 a4.4 4.4 0 1 0 -8.8 0zM243.81 447.66 a4.4 4.4 0 1 0 8.8 0 a4.4 4.4 0 1 0 -8.8 0zM205.7 425.66 a4.4 4.4 0 1 0 8.8 0 a4.4 4.4 0 1 0 -8.8 0zM205.7 381.66 a4.4 4.4 0 1 0 8.8 0 a4.4 4.4 0 1 0 -8.8 0zM510.55 425.66 a4.4 4.4 0 1 0 8.8 0 a4.4 4.4 0 1 0 -8.8 0zM548.66 447.66 a4.4 4.4 0 1 0 8.8 0 a4.4 4.4 0 1 0 -8.8 0zM548.66 491.66 a4.4 4.4 0 1 0 8.8 0 a4.4 4.4 0 1 0 -8.8 0zM510.55 513.66 a4.4 4.4 0 1 0 8.8 0 a4.4 4.4 0 1 0 -8.8 0zM472.44 491.66 a4.4 4.4 0 1 0 8.8 0 a4.4 4.4 0 1 0 -8.8 0zM472.44 447.66 a4.4 4.4 0 1 0 8.8 0 a4.4 4.4 0 1 0 -8.8 0zM586.76 293.66 a4.4 4.4 0 1 0 8.8 0 a4.4 4.4 0 1 0 -8.8 0zM624.87 315.66 a4.4 4.4 0 1 0 8.8 0 a4.4 4.4 0 1 0 -8.8 0zM624.87 359.66 a4.4 4.4 0 1 0 8.8 0 a4.4 4.4 0 1 0 -8.8 0zM586.76 381.66 a4.4 4.4 0 1 0 8.8 0 a4.4 4.4 0 1 0 -8.8 0zM548.66 359.66 a4.4 4.4 0 1 0 8.8 0 a4.4 4.4 0 1 0 -8.8 0zM548.66 315.66 a4.4 4.4 0 1 0 8.8 0 a4.4 4.4 0 1 0 -8.8 0zM624.87 -36.34 a4.4 4.4 0 1 0 8.8 0 a4.4 4.4 0 1 0 -8.8 0zM662.98 -14.34 a4.4 4.4 0 1 0 8.8 0 a4.4 4.4 0 1 0 -8.8 0zM662.98 29.66 a4.4 4.4 0 1 0 8.8 0 a4.4 4.4 0 1 0 -8.8 0zM624.87 51.66 a4.4 4.4 0 1 0 8.8 0 a4.4 4.4 0 1 0 -8.8 0zM586.76 29.66 a4.4 4.4 0 1 0 8.8 0 a4.4 4.4 0 1 0 -8.8 0zM586.76 -14.34 a4.4 4.4 0 1 0 8.8 0 a4.4 4.4 0 1 0 -8.8 0zM662.98 425.66 a4.4 4.4 0 1 0 8.8 0 a4.4 4.4 0 1 0 -8.8 0zM701.08 447.66 a4.4 4.4 0 1 0 8.8 0 a4.4 4.4 0 1 0 -8.8 0zM701.08 491.66 a4.4 4.4 0 1 0 8.8 0 a4.4 4.4 0 1 0 -8.8 0zM662.98 513.66 a4.4 4.4 0 1 0 8.8 0 a4.4 4.4 0 1 0 -8.8 0zM624.87 491.66 a4.4 4.4 0 1 0 8.8 0 a4.4 4.4 0 1 0 -8.8 0zM624.87 447.66 a4.4 4.4 0 1 0 8.8 0 a4.4 4.4 0 1 0 -8.8 0zM662.98 557.66 a4.4 4.4 0 1 0 8.8 0 a4.4 4.4 0 1 0 -8.8 0zM624.87 579.66 a4.4 4.4 0 1 0 8.8 0 a4.4 4.4 0 1 0 -8.8 0zM586.76 557.66 a4.4 4.4 0 1 0 8.8 0 a4.4 4.4 0 1 0 -8.8 0zM586.76 513.66 a4.4 4.4 0 1 0 8.8 0 a4.4 4.4 0 1 0 -8.8 0zM777.29 359.66 a4.4 4.4 0 1 0 8.8 0 a4.4 4.4 0 1 0 -8.8 0zM815.4 381.66 a4.4 4.4 0 1 0 8.8 0 a4.4 4.4 0 1 0 -8.8 0zM815.4 425.66 a4.4 4.4 0 1 0 8.8 0 a4.4 4.4 0 1 0 -8.8 0zM777.29 447.66 a4.4 4.4 0 1 0 8.8 0 a4.4 4.4 0 1 0 -8.8 0zM739.19 425.66 a4.4 4.4 0 1 0 8.8 0 a4.4 4.4 0 1 0 -8.8 0zM739.19 381.66 a4.4 4.4 0 1 0 8.8 0 a4.4 4.4 0 1 0 -8.8 0zM891.61 293.66 a4.4 4.4 0 1 0 8.8 0 a4.4 4.4 0 1 0 -8.8 0zM929.72 315.66 a4.4 4.4 0 1 0 8.8 0 a4.4 4.4 0 1 0 -8.8 0zM929.72 359.66 a4.4 4.4 0 1 0 8.8 0 a4.4 4.4 0 1 0 -8.8 0zM891.61 381.66 a4.4 4.4 0 1 0 8.8 0 a4.4 4.4 0 1 0 -8.8 0zM853.51 359.66 a4.4 4.4 0 1 0 8.8 0 a4.4 4.4 0 1 0 -8.8 0zM853.51 315.66 a4.4 4.4 0 1 0 8.8 0 a4.4 4.4 0 1 0 -8.8 0zM929.72 227.66 a4.4 4.4 0 1 0 8.8 0 a4.4 4.4 0 1 0 -8.8 0zM967.83 249.66 a4.4 4.4 0 1 0 8.8 0 a4.4 4.4 0 1 0 -8.8 0zM967.83 293.66 a4.4 4.4 0 1 0 8.8 0 a4.4 4.4 0 1 0 -8.8 0zM891.61 249.66 a4.4 4.4 0 1 0 8.8 0 a4.4 4.4 0 1 0 -8.8 0zM967.83 381.66 a4.4 4.4 0 1 0 8.8 0 a4.4 4.4 0 1 0 -8.8 0zM967.83 425.66 a4.4 4.4 0 1 0 8.8 0 a4.4 4.4 0 1 0 -8.8 0zM929.72 447.66 a4.4 4.4 0 1 0 8.8 0 a4.4 4.4 0 1 0 -8.8 0zM891.61 425.66 a4.4 4.4 0 1 0 8.8 0 a4.4 4.4 0 1 0 -8.8 0zM1044.04 29.66 a4.4 4.4 0 1 0 8.8 0 a4.4 4.4 0 1 0 -8.8 0zM1082.14 51.66 a4.4 4.4 0 1 0 8.8 0 a4.4 4.4 0 1 0 -8.8 0zM1082.14 95.66 a4.4 4.4 0 1 0 8.8 0 a4.4 4.4 0 1 0 -8.8 0zM1044.04 117.66 a4.4 4.4 0 1 0 8.8 0 a4.4 4.4 0 1 0 -8.8 0zM1005.93 95.66 a4.4 4.4 0 1 0 8.8 0 a4.4 4.4 0 1 0 -8.8 0zM1005.93 51.66 a4.4 4.4 0 1 0 8.8 0 a4.4 4.4 0 1 0 -8.8 0zM1044.04 293.66 a4.4 4.4 0 1 0 8.8 0 a4.4 4.4 0 1 0 -8.8 0zM1082.14 315.66 a4.4 4.4 0 1 0 8.8 0 a4.4 4.4 0 1 0 -8.8 0zM1082.14 359.66 a4.4 4.4 0 1 0 8.8 0 a4.4 4.4 0 1 0 -8.8 0zM1044.04 381.66 a4.4 4.4 0 1 0 8.8 0 a4.4 4.4 0 1 0 -8.8 0zM1005.93 359.66 a4.4 4.4 0 1 0 8.8 0 a4.4 4.4 0 1 0 -8.8 0zM1005.93 315.66 a4.4 4.4 0 1 0 8.8 0 a4.4 4.4 0 1 0 -8.8 0zM1005.93 491.66 a4.4 4.4 0 1 0 8.8 0 a4.4 4.4 0 1 0 -8.8 0zM1044.04 513.66 a4.4 4.4 0 1 0 8.8 0 a4.4 4.4 0 1 0 -8.8 0zM1044.04 557.66 a4.4 4.4 0 1 0 8.8 0 a4.4 4.4 0 1 0 -8.8 0zM1005.93 579.66 a4.4 4.4 0 1 0 8.8 0 a4.4 4.4 0 1 0 -8.8 0zM967.83 557.66 a4.4 4.4 0 1 0 8.8 0 a4.4 4.4 0 1 0 -8.8 0zM967.83 513.66 a4.4 4.4 0 1 0 8.8 0 a4.4 4.4 0 1 0 -8.8 0zM1120.25 425.66 a4.4 4.4 0 1 0 8.8 0 a4.4 4.4 0 1 0 -8.8 0zM1158.36 447.66 a4.4 4.4 0 1 0 8.8 0 a4.4 4.4 0 1 0 -8.8 0zM1158.36 491.66 a4.4 4.4 0 1 0 8.8 0 a4.4 4.4 0 1 0 -8.8 0zM1120.25 513.66 a4.4 4.4 0 1 0 8.8 0 a4.4 4.4 0 1 0 -8.8 0zM1082.14 491.66 a4.4 4.4 0 1 0 8.8 0 a4.4 4.4 0 1 0 -8.8 0zM1082.14 447.66 a4.4 4.4 0 1 0 8.8 0 a4.4 4.4 0 1 0 -8.8 0zM1120.25 557.66 a4.4 4.4 0 1 0 8.8 0 a4.4 4.4 0 1 0 -8.8 0zM1082.14 579.66 a4.4 4.4 0 1 0 8.8 0 a4.4 4.4 0 1 0 -8.8 0zM1196.46 293.66 a4.4 4.4 0 1 0 8.8 0 a4.4 4.4 0 1 0 -8.8 0zM1234.57 315.66 a4.4 4.4 0 1 0 8.8 0 a4.4 4.4 0 1 0 -8.8 0zM1234.57 359.66 a4.4 4.4 0 1 0 8.8 0 a4.4 4.4 0 1 0 -8.8 0zM1196.46 381.66 a4.4 4.4 0 1 0 8.8 0 a4.4 4.4 0 1 0 -8.8 0zM1158.36 359.66 a4.4 4.4 0 1 0 8.8 0 a4.4 4.4 0 1 0 -8.8 0zM1158.36 315.66 a4.4 4.4 0 1 0 8.8 0 a4.4 4.4 0 1 0 -8.8 0zM1196.46 425.66 a4.4 4.4 0 1 0 8.8 0 a4.4 4.4 0 1 0 -8.8 0zM1120.25 381.66 a4.4 4.4 0 1 0 8.8 0 a4.4 4.4 0 1 0 -8.8 0zM1234.57 227.66 a4.4 4.4 0 1 0 8.8 0 a4.4 4.4 0 1 0 -8.8 0zM1272.67 249.66 a4.4 4.4 0 1 0 8.8 0 a4.4 4.4 0 1 0 -8.8 0zM1272.67 293.66 a4.4 4.4 0 1 0 8.8 0 a4.4 4.4 0 1 0 -8.8 0zM1196.46 249.66 a4.4 4.4 0 1 0 8.8 0 a4.4 4.4 0 1 0 -8.8 0zM1310.78 491.66 a4.4 4.4 0 1 0 8.8 0 a4.4 4.4 0 1 0 -8.8 0zM1348.89 513.66 a4.4 4.4 0 1 0 8.8 0 a4.4 4.4 0 1 0 -8.8 0zM1348.89 557.66 a4.4 4.4 0 1 0 8.8 0 a4.4 4.4 0 1 0 -8.8 0zM1310.78 579.66 a4.4 4.4 0 1 0 8.8 0 a4.4 4.4 0 1 0 -8.8 0zM1272.67 557.66 a4.4 4.4 0 1 0 8.8 0 a4.4 4.4 0 1 0 -8.8 0zM1272.67 513.66 a4.4 4.4 0 1 0 8.8 0 a4.4 4.4 0 1 0 -8.8 0z" fill="rgba(2, 226, 148, 1)"></path><path d="M153.51 -2.77L208.94 29.23L208.94 93.23L153.51 125.23L98.09 93.23L98.09 29.23zM153.51 381.23L208.94 413.23L208.94 477.23L153.51 509.23L98.09 477.23L98.09 413.23zM874.07 285.23L929.5 317.23L929.5 381.23L874.07 413.23L818.64 381.23L818.64 317.23zM1095.78 477.23L1151.2 509.23L1151.2 573.23L1095.78 605.23L1040.35 573.23L1040.35 509.23zM1317.49 93.23L1372.91 125.23L1372.91 189.23L1317.49 221.23L1262.06 189.23L1262.06 125.23zM1428.34 93.23L1483.77 125.23L1483.77 189.23L1428.34 221.23L1372.91 189.23L1372.91 125.23z" stroke="rgba(0, 0, 0, 0)" stroke-width="2"></path><path d="M147.11 -2.77 a6.4 6.4 0 1 0 12.8 0 a6.4 6.4 0 1 0 -12.8 0zM202.54 29.23 a6.4 6.4 0 1 0 12.8 0 a6.4 6.4 0 1 0 -12.8 0zM202.54 93.23 a6.4 6.4 0 1 0 12.8 0 a6.4 6.4 0 1 0 -12.8 0zM147.11 125.23 a6.4 6.4 0 1 0 12.8 0 a6.4 6.4 0 1 0 -12.8 0zM91.69 93.23 a6.4 6.4 0 1 0 12.8 0 a6.4 6.4 0 1 0 -12.8 0zM91.69 29.23 a6.4 6.4 0 1 0 12.8 0 a6.4 6.4 0 1 0 -12.8 0zM147.11 381.23 a6.4 6.4 0 1 0 12.8 0 a6.4 6.4 0 1 0 -12.8 0zM202.54 413.23 a6.4 6.4 0 1 0 12.8 0 a6.4 6.4 0 1 0 -12.8 0zM202.54 477.23 a6.4 6.4 0 1 0 12.8 0 a6.4 6.4 0 1 0 -12.8 0zM147.11 509.23 a6.4 6.4 0 1 0 12.8 0 a6.4 6.4 0 1 0 -12.8 0zM91.69 477.23 a6.4 6.4 0 1 0 12.8 0 a6.4 6.4 0 1 0 -12.8 0zM91.69 413.23 a6.4 6.4 0 1 0 12.8 0 a6.4 6.4 0 1 0 -12.8 0zM867.67 285.23 a6.4 6.4 0 1 0 12.8 0 a6.4 6.4 0 1 0 -12.8 0zM923.1 317.23 a6.4 6.4 0 1 0 12.8 0 a6.4 6.4 0 1 0 -12.8 0zM923.1 381.23 a6.4 6.4 0 1 0 12.8 0 a6.4 6.4 0 1 0 -12.8 0zM867.67 413.23 a6.4 6.4 0 1 0 12.8 0 a6.4 6.4 0 1 0 -12.8 0zM812.24 381.23 a6.4 6.4 0 1 0 12.8 0 a6.4 6.4 0 1 0 -12.8 0zM812.24 317.23 a6.4 6.4 0 1 0 12.8 0 a6.4 6.4 0 1 0 -12.8 0zM1089.38 477.23 a6.4 6.4 0 1 0 12.8 0 a6.4 6.4 0 1 0 -12.8 0zM1144.8 509.23 a6.4 6.4 0 1 0 12.8 0 a6.4 6.4 0 1 0 -12.8 0zM1144.8 573.23 a6.4 6.4 0 1 0 12.8 0 a6.4 6.4 0 1 0 -12.8 0zM1089.38 605.23 a6.4 6.4 0 1 0 12.8 0 a6.4 6.4 0 1 0 -12.8 0zM1033.95 573.23 a6.4 6.4 0 1 0 12.8 0 a6.4 6.4 0 1 0 -12.8 0zM1033.95 509.23 a6.4 6.4 0 1 0 12.8 0 a6.4 6.4 0 1 0 -12.8 0zM1311.09 93.23 a6.4 6.4 0 1 0 12.8 0 a6.4 6.4 0 1 0 -12.8 0zM1366.51 125.23 a6.4 6.4 0 1 0 12.8 0 a6.4 6.4 0 1 0 -12.8 0zM1366.51 189.23 a6.4 6.4 0 1 0 12.8 0 a6.4 6.4 0 1 0 -12.8 0zM1311.09 221.23 a6.4 6.4 0 1 0 12.8 0 a6.4 6.4 0 1 0 -12.8 0zM1255.66 189.23 a6.4 6.4 0 1 0 12.8 0 a6.4 6.4 0 1 0 -12.8 0zM1255.66 125.23 a6.4 6.4 0 1 0 12.8 0 a6.4 6.4 0 1 0 -12.8 0zM1421.94 93.23 a6.4 6.4 0 1 0 12.8 0 a6.4 6.4 0 1 0 -12.8 0zM1477.37 125.23 a6.4 6.4 0 1 0 12.8 0 a6.4 6.4 0 1 0 -12.8 0zM1477.37 189.23 a6.4 6.4 0 1 0 12.8 0 a6.4 6.4 0 1 0 -12.8 0zM1421.94 221.23 a6.4 6.4 0 1 0 12.8 0 a6.4 6.4 0 1 0 -12.8 0z" fill="rgba(0, 0, 0, 0)"></path><path d="M1.83 -24.47L45.13 0.53L45.13 50.53L1.83 75.53L-41.47 50.53L-41.47 0.53zM1.83 125.53L45.13 150.53L45.13 200.53L1.83 225.53L-41.47 200.53L-41.47 150.53zM1.83 275.53L45.13 300.53L45.13 350.53L1.83 375.53L-41.47 350.53L-41.47 300.53zM45.13 350.53L88.44 375.53L88.44 425.53L45.13 450.53L1.83 425.53L1.83 375.53zM88.44 -24.47L131.74 0.53L131.74 50.53L88.44 75.53L45.13 50.53L45.13 0.53zM131.74 50.53L175.04 75.53L175.04 125.53L131.74 150.53L88.44 125.53L88.44 75.53zM88.44 125.53L131.74 150.53L131.74 200.53L88.44 225.53L45.13 200.53L45.13 150.53zM131.74 200.53L175.04 225.53L175.04 275.53L131.74 300.53L88.44 275.53L88.44 225.53zM88.44 425.53L131.74 450.53L131.74 500.53L88.44 525.53L45.13 500.53L45.13 450.53zM131.74 500.53L175.04 525.53L175.04 575.53L131.74 600.53L88.44 575.53L88.44 525.53zM175.04 -24.47L218.34 0.53L218.34 50.53L175.04 75.53L131.74 50.53L131.74 0.53zM175.04 125.53L218.34 150.53L218.34 200.53L175.04 225.53L131.74 200.53L131.74 150.53zM175.04 275.53L218.34 300.53L218.34 350.53L175.04 375.53L131.74 350.53L131.74 300.53zM261.64 -24.47L304.95 0.53L304.95 50.53L261.64 75.53L218.34 50.53L218.34 0.53zM304.95 350.53L348.25 375.53L348.25 425.53L304.95 450.53L261.64 425.53L261.64 375.53zM391.55 50.53L434.86 75.53L434.86 125.53L391.55 150.53L348.25 125.53L348.25 75.53zM391.55 200.53L434.86 225.53L434.86 275.53L391.55 300.53L348.25 275.53L348.25 225.53zM348.25 275.53L391.55 300.53L391.55 350.53L348.25 375.53L304.95 350.53L304.95 300.53zM391.55 350.53L434.86 375.53L434.86 425.53L391.55 450.53L348.25 425.53L348.25 375.53zM348.25 425.53L391.55 450.53L391.55 500.53L348.25 525.53L304.95 500.53L304.95 450.53zM391.55 500.53L434.86 525.53L434.86 575.53L391.55 600.53L348.25 575.53L348.25 525.53zM478.16 50.53L521.46 75.53L521.46 125.53L478.16 150.53L434.86 125.53L434.86 75.53zM434.86 125.53L478.16 150.53L478.16 200.53L434.86 225.53L391.55 200.53L391.55 150.53zM478.16 200.53L521.46 225.53L521.46 275.53L478.16 300.53L434.86 275.53L434.86 225.53zM521.46 -24.47L564.76 0.53L564.76 50.53L521.46 75.53L478.16 50.53L478.16 0.53zM521.46 275.53L564.76 300.53L564.76 350.53L521.46 375.53L478.16 350.53L478.16 300.53zM564.76 350.53L608.07 375.53L608.07 425.53L564.76 450.53L521.46 425.53L521.46 375.53zM651.37 200.53L694.67 225.53L694.67 275.53L651.37 300.53L608.07 275.53L608.07 225.53zM651.37 350.53L694.67 375.53L694.67 425.53L651.37 450.53L608.07 425.53L608.07 375.53zM608.07 425.53L651.37 450.53L651.37 500.53L608.07 525.53L564.76 500.53L564.76 450.53zM694.67 -24.47L737.97 0.53L737.97 50.53L694.67 75.53L651.37 50.53L651.37 0.53zM737.97 50.53L781.28 75.53L781.28 125.53L737.97 150.53L694.67 125.53L694.67 75.53zM737.97 350.53L781.28 375.53L781.28 425.53L737.97 450.53L694.67 425.53L694.67 375.53zM737.97 500.53L781.28 525.53L781.28 575.53L737.97 600.53L694.67 575.53L694.67 525.53zM781.28 275.53L824.58 300.53L824.58 350.53L781.28 375.53L737.97 350.53L737.97 300.53zM824.58 350.53L867.88 375.53L867.88 425.53L824.58 450.53L781.28 425.53L781.28 375.53zM824.58 500.53L867.88 525.53L867.88 575.53L824.58 600.53L781.28 575.53L781.28 525.53zM911.18 50.53L954.49 75.53L954.49 125.53L911.18 150.53L867.88 125.53L867.88 75.53zM867.88 275.53L911.18 300.53L911.18 350.53L867.88 375.53L824.58 350.53L824.58 300.53zM867.88 425.53L911.18 450.53L911.18 500.53L867.88 525.53L824.58 500.53L824.58 450.53zM911.18 500.53L954.49 525.53L954.49 575.53L911.18 600.53L867.88 575.53L867.88 525.53zM954.49 125.53L997.79 150.53L997.79 200.53L954.49 225.53L911.18 200.53L911.18 150.53zM997.79 350.53L1041.09 375.53L1041.09 425.53L997.79 450.53L954.49 425.53L954.49 375.53zM1041.09 -24.47L1084.39 0.53L1084.39 50.53L1041.09 75.53L997.79 50.53L997.79 0.53zM1084.39 50.53L1127.69 75.53L1127.69 125.53L1084.39 150.53L1041.09 125.53L1041.09 75.53zM1041.09 275.53L1084.39 300.53L1084.39 350.53L1041.09 375.53L997.79 350.53L997.79 300.53zM1084.39 350.53L1127.69 375.53L1127.69 425.53L1084.39 450.53L1041.09 425.53L1041.09 375.53zM1041.09 425.53L1084.39 450.53L1084.39 500.53L1041.09 525.53L997.79 500.53L997.79 450.53zM1084.39 500.53L1127.69 525.53L1127.69 575.53L1084.39 600.53L1041.09 575.53L1041.09 525.53zM1171 200.53L1214.3 225.53L1214.3 275.53L1171 300.53L1127.69 275.53L1127.69 225.53zM1171 350.53L1214.3 375.53L1214.3 425.53L1171 450.53L1127.69 425.53L1127.69 375.53zM1171 500.53L1214.3 525.53L1214.3 575.53L1171 600.53L1127.69 575.53L1127.69 525.53zM1214.3 -24.47L1257.6 0.53L1257.6 50.53L1214.3 75.53L1171 50.53L1171 0.53zM1257.6 200.53L1300.9 225.53L1300.9 275.53L1257.6 300.53L1214.3 275.53L1214.3 225.53zM1214.3 275.53L1257.6 300.53L1257.6 350.53L1214.3 375.53L1171 350.53L1171 300.53zM1257.6 350.53L1300.9 375.53L1300.9 425.53L1257.6 450.53L1214.3 425.53L1214.3 375.53zM1257.6 500.53L1300.9 525.53L1300.9 575.53L1257.6 600.53L1214.3 575.53L1214.3 525.53zM1300.9 -24.47L1344.21 0.53L1344.21 50.53L1300.9 75.53L1257.6 50.53L1257.6 0.53zM1300.9 125.53L1344.21 150.53L1344.21 200.53L1300.9 225.53L1257.6 200.53L1257.6 150.53zM1344.21 200.53L1387.51 225.53L1387.51 275.53L1344.21 300.53L1300.9 275.53L1300.9 225.53zM1344.21 350.53L1387.51 375.53L1387.51 425.53L1344.21 450.53L1300.9 425.53L1300.9 375.53zM1344.21 500.53L1387.51 525.53L1387.51 575.53L1344.21 600.53L1300.9 575.53L1300.9 525.53zM1387.51 125.53L1430.81 150.53L1430.81 200.53L1387.51 225.53L1344.21 200.53L1344.21 150.53zM1430.81 350.53L1474.12 375.53L1474.12 425.53L1430.81 450.53L1387.51 425.53L1387.51 375.53zM1430.81 500.53L1474.12 525.53L1474.12 575.53L1430.81 600.53L1387.51 575.53L1387.51 525.53z" stroke="rgba(6, 80, 156, 0.93)" stroke-width="2"></path></g><defs><mask id="SvgjsMask1127"><rect width="1440" height="560" fill="#ffffff"></rect></mask></defs></svg>